<svg id="Layer_1" data-name="Layer 1" xmlns="http://www.w3.org/2000/svg" xmlns:xlink="http://www.w3.org/1999/xlink" width="42.62" height="31.79" viewBox="0 0 42.62 31.79"><defs><style>.cls-1{fill:url(#linear-gradient);}</style><linearGradient id="linear-gradient" x1="24" y1="8.11" x2="24" y2="39.89" gradientUnits="userSpaceOnUse"><stop offset="0" stop-color="#ffd843"/><stop offset="1" stop-color="#ffaf20"/></linearGradient></defs><path class="cls-1" d="M20.56,21.57a1.35,1.35,0,0,1,1,.37,1.4,1.4,0,0,1,.35,1,1.24,1.24,0,0,1-1.38,1.36H19V21.57Zm19.92-1.85H33.61v10h6.85V27.83H36V25.45h3.77V23.67H36v-2.1h4.47Zm-7.84,0H25.78v10h6.85V27.83H28.17V25.45H32V23.67H28.17v-2.1h4.47Zm-12.08,0H16.65v10H19V26.16h1.3l1.76,3.51h2.57v-.1l-2.08-4a3.07,3.07,0,0,0,1.32-1.11,3.22,3.22,0,0,0,.42-1.72,2.67,2.67,0,0,0-1-2.22,4.18,4.18,0,0,0-2.48-.78Zm-4.92,0H9v10h2.4v-4h3.86V23.86H11.39V21.57h4.25ZM28.73,8.11a19.56,19.56,0,0,1,6.8,1.12,14.81,14.81,0,0,1,5.24,3.22,14.26,14.26,0,0,1,3.36,5A17.26,17.26,0,0,1,45.31,24a17.26,17.26,0,0,1-1.18,6.53,14.26,14.26,0,0,1-3.36,5,14.81,14.81,0,0,1-5.24,3.22,19.56,19.56,0,0,1-6.8,1.12H19.27a19.44,19.44,0,0,1-6.78-1.12,14.94,14.94,0,0,1-5.25-3.22,14.15,14.15,0,0,1-3.37-5A17.26,17.26,0,0,1,2.69,24a17.26,17.26,0,0,1,1.18-6.53,14.15,14.15,0,0,1,3.37-5,14.94,14.94,0,0,1,5.25-3.22,19.44,19.44,0,0,1,6.78-1.12Z" transform="translate(-2.69 -8.11)"/></svg>