<svg id="Layer_1" data-name="Layer 1" xmlns="http://www.w3.org/2000/svg" xmlns:xlink="http://www.w3.org/1999/xlink" width="31.86" height="33.75" viewBox="0 0 31.86 33.75"><defs><style>.cls-1{fill:url(#linear-gradient);}</style><linearGradient id="linear-gradient" x1="24" y1="7.13" x2="24" y2="40.87" gradientUnits="userSpaceOnUse"><stop offset="0" stop-color="#ffd843"/><stop offset="1" stop-color="#ffaf20"/></linearGradient></defs><path class="cls-1" d="M32.8,38.23H15.2a7.1,7.1,0,0,1,1.28-2.18,8.5,8.5,0,0,1,2-1.71A9.72,9.72,0,0,1,21,33.21a11.23,11.23,0,0,1,5.94,0,9.86,9.86,0,0,1,2.56,1.13,8.44,8.44,0,0,1,2,1.71A7.28,7.28,0,0,1,32.8,38.23ZM24,30.61a4.25,4.25,0,0,1-2.31-.67,4.83,4.83,0,0,1-1.65-1.79,5.25,5.25,0,0,1-.62-2.54,4.95,4.95,0,0,1,2.26-4.27,4.35,4.35,0,0,1,4.64,0,5,5,0,0,1,2.27,4.27A5.18,5.18,0,0,1,28,28.16,4.78,4.78,0,0,1,26.33,30,4.15,4.15,0,0,1,24,30.61ZM35.2,40.88a4.8,4.8,0,0,0,3.53-1.19,4.75,4.75,0,0,0,1.2-3.52V20.44a4.76,4.76,0,0,0-1.2-3.53,4.76,4.76,0,0,0-3.53-1.19H12.84a4.81,4.81,0,0,0-3.57,1.19,4.76,4.76,0,0,0-1.2,3.53V36.17a4.75,4.75,0,0,0,1.2,3.52,4.85,4.85,0,0,0,3.57,1.19Zm1.42-27.57a2.94,2.94,0,0,0-.73-1.61,2.33,2.33,0,0,0-1.71-.56H13.87a2.33,2.33,0,0,0-1.71.56,2.88,2.88,0,0,0-.73,1.61Zm-2.91-4.2a2.11,2.11,0,0,0-.64-1.48,2.3,2.3,0,0,0-1.61-.51H16.85a2.31,2.31,0,0,0-1.62.51,2.19,2.19,0,0,0-.64,1.48Z" transform="translate(-8.07 -7.13)"/></svg>