<svg id="Layer_1" data-name="Layer 1" xmlns="http://www.w3.org/2000/svg" xmlns:xlink="http://www.w3.org/1999/xlink" width="42.42" height="34" viewBox="0 0 42.42 34"><defs><style>.cls-1{fill:url(#linear-gradient);}</style><linearGradient id="linear-gradient" x1="24" y1="7" x2="24" y2="41" gradientUnits="userSpaceOnUse"><stop offset="0" stop-color="#ffd843"/><stop offset="1" stop-color="#ffaf20"/></linearGradient></defs><path class="cls-1" d="M36.65,41a1.25,1.25,0,0,0,1-.42A1.69,1.69,0,0,0,38,39.44v-4.3h1.55a5.53,5.53,0,0,0,4.11-1.55,5.76,5.76,0,0,0,1.53-4.22v-9.2A5.41,5.41,0,0,0,43.66,16a5.77,5.77,0,0,0-4.15-1.47h-15A5.77,5.77,0,0,0,20.3,16a5.57,5.57,0,0,0-1.5,4.17v9.17a5.82,5.82,0,0,0,1.5,4.22,5.61,5.61,0,0,0,4.21,1.55h5l5.42,4.91a7,7,0,0,0,.91.72A1.66,1.66,0,0,0,36.65,41ZM12.21,38.91a1.64,1.64,0,0,0,.85-.23A5.24,5.24,0,0,0,14,38L18.23,34a3.91,3.91,0,0,1-1.07-1.42,6.34,6.34,0,0,1-.45-2.69V19.81a8.22,8.22,0,0,1,.89-3.94,6.1,6.1,0,0,1,2.55-2.53,8.38,8.38,0,0,1,4-.87H34.62l0-.52a5.78,5.78,0,0,0-.82-2.6,4.71,4.71,0,0,0-1.91-1.73A6.48,6.48,0,0,0,28.93,7H8.51A5.8,5.8,0,0,0,4.34,8.47a5.41,5.41,0,0,0-1.55,4.14V27.3a5.67,5.67,0,0,0,1.54,4.2,5.55,5.55,0,0,0,4.12,1.55h2.4v4.29a1.69,1.69,0,0,0,.36,1.14A1.22,1.22,0,0,0,12.21,38.91Z" transform="translate(-2.79 -7)"/></svg>