<svg id="Layer_1" data-name="Layer 1" xmlns="http://www.w3.org/2000/svg" xmlns:xlink="http://www.w3.org/1999/xlink" width="30.38" height="30.38" viewBox="0 0 30.38 30.38"><defs><style>.cls-1{fill:url(#linear-gradient);}</style><linearGradient id="linear-gradient" x1="24" y1="8.81" x2="24" y2="39.19" gradientUnits="userSpaceOnUse"><stop offset="0" stop-color="#ffd843"/><stop offset="1" stop-color="#ffaf20"/></linearGradient></defs><path class="cls-1" d="M24,25.73H16.42a1.11,1.11,0,1,1,0-2.21h6.47V14.81A1.09,1.09,0,0,1,24,13.72a1.1,1.1,0,0,1,.81.32,1.06,1.06,0,0,1,.32.77v9.81A1.09,1.09,0,0,1,24,25.73Zm0,13.46A14.59,14.59,0,0,0,29.88,38,15.59,15.59,0,0,0,38,29.87a15.07,15.07,0,0,0,0-11.74A15.6,15.6,0,0,0,29.86,10a15,15,0,0,0-11.72,0A15.6,15.6,0,0,0,10,18.13,14.67,14.67,0,0,0,8.81,24,14.5,14.5,0,0,0,10,29.87,15.65,15.65,0,0,0,18.14,38,14.49,14.49,0,0,0,24,39.19Z" transform="translate(-8.81 -8.81)"/></svg>